<svg width="1042" height="657" viewBox="0 0 1042 657" fill="none" xmlns="http://www.w3.org/2000/svg">
<path d="M1092.38 699.666H505.261C491.342 699.666 479.271 689.103 476.172 674.208L360.884 120.31C359.288 112.645 353.366 106.615 345.73 104.882L169.301 64.8335C153.162 61.1725 142.786 43.8425 146.124 26.1277C149.46 8.41297 165.251 -2.97649 181.386 0.684482L389.126 47.84C400.564 50.4366 409.571 60.1212 412.171 72.621L525.734 618.235C527.665 627.511 535.839 634.16 545.314 634.16H1092.38C1108.86 634.16 1122.22 648.823 1122.22 666.912C1122.22 685 1108.86 699.666 1092.38 699.666Z" fill="white" fill-opacity="0.15"/>
<path d="M1141.59 305.085L506.133 125.83C496.049 122.987 485.351 126.115 477.893 134.083C470.436 142.052 467.298 153.711 469.618 164.849L575.635 674.209C578.735 689.105 590.806 699.668 604.724 699.668H1092.39C1107.28 699.668 1119.89 687.614 1121.94 671.423L1163.71 341.316C1165.8 324.817 1156.28 309.229 1141.59 305.085Z" fill="white" fill-opacity="0.15"/>
<path d="M1141.59 305.086L868.873 228.157C856.112 224.557 843.443 234.146 843.443 247.406V679.667C843.443 690.712 852.398 699.667 863.443 699.667H1092.39C1107.28 699.667 1119.89 687.613 1121.94 671.421L1163.71 341.315C1165.8 324.818 1156.28 309.23 1141.59 305.086Z" fill="white" fill-opacity="0.15"/>
<path d="M715.747 337.205C699.268 337.205 685.908 351.869 685.908 369.957V514.071C685.908 532.159 699.268 546.823 715.747 546.823C732.226 546.823 745.585 532.159 745.585 514.071V369.957C745.585 351.869 732.226 337.205 715.747 337.205Z" fill="#688E26"/>
<path d="M971.144 415.809C954.665 415.809 941.305 430.472 941.305 448.561V514.067C941.305 532.156 954.665 546.819 971.144 546.819C987.623 546.819 1000.98 532.156 1000.98 514.067V448.561C1000.98 430.472 987.625 415.809 971.144 415.809Z" fill="#688E26"/>
<path d="M843.446 380.875C826.967 380.875 813.607 395.539 813.607 413.628V514.069C813.607 532.158 826.967 546.822 843.446 546.822C859.925 546.822 873.285 532.158 873.285 514.069V413.628C873.285 395.539 859.925 380.875 843.446 380.875Z" fill="#688E26"/>
<path d="M861.77 387.778C853.377 380.598 843.445 389.83 843.445 400.875L843.443 546.822C843.443 546.823 843.444 546.824 843.445 546.824V546.824C859.924 546.824 873.284 532.16 873.284 514.072V413.63C873.284 403.123 868.778 393.772 861.77 387.778Z" fill="#688E26"/>
<path d="M296.721 241.045H110.351C90.0194 241.045 73.5674 259.121 73.5674 281.46C73.5674 303.799 90.0194 321.875 110.351 321.875H296.721C317.052 321.875 333.504 303.799 333.504 281.46C333.504 259.121 317.052 241.045 296.721 241.045Z" fill="white" fill-opacity="0.15"/>
<path d="M296.721 564.366H110.351C90.0194 564.366 73.5674 582.442 73.5674 604.781C73.5674 627.12 90.0194 645.196 110.351 645.196H296.721C317.052 645.196 333.504 627.12 333.504 604.781C333.504 582.442 317.052 564.366 296.721 564.366Z" fill="white" fill-opacity="0.15"/>
<path d="M223.153 402.706H36.7835C16.452 402.706 0 420.782 0 443.121C0 465.459 16.452 483.536 36.7835 483.536H223.153C243.485 483.536 259.937 465.459 259.937 443.121C259.937 420.782 243.485 402.706 223.153 402.706Z" fill="white" fill-opacity="0.15"/>
</svg>
