<svg width="351" height="32" viewBox="0 0 351 32" fill="none" xmlns="http://www.w3.org/2000/svg">
<path d="M0.207031 1.39062H23.1172V11.4883H16.7695V7.32812H9.75781V13.5586H15.832V19.2422H9.75781V25.6484H12.8828V31H0.207031V25.6484H3.27344V7.32812H0.207031V1.39062ZM47.1211 29.9062C46.6654 30.1927 46.2487 30.4401 45.8711 30.6484C45.4935 30.8438 45.1159 31 44.7383 31.1172C44.3607 31.2474 43.9701 31.3385 43.5664 31.3906C43.1628 31.4557 42.7201 31.4883 42.2383 31.4883C41.0273 31.4883 39.9401 31.3255 38.9766 31C38.026 30.6615 37.2188 30.2057 36.5547 29.6328C35.9036 29.0469 35.4023 28.3633 35.0508 27.582C34.6992 26.7878 34.5234 25.9284 34.5234 25.0039C34.5234 24.0664 34.6992 23.2005 35.0508 22.4062C35.4154 21.612 35.9362 20.9349 36.6133 20.375C37.2904 19.8021 38.1172 19.3594 39.0938 19.0469C40.0833 18.7214 41.2096 18.5586 42.4727 18.5586C43.3971 18.5586 44.237 18.6107 44.9922 18.7148C45.7604 18.806 46.4701 18.9232 47.1211 19.0664V18.4414C47.1211 17.9336 47.0234 17.4974 46.8281 17.1328C46.6328 16.7552 46.3594 16.4492 46.0078 16.2148C45.6562 15.9674 45.2331 15.7917 44.7383 15.6875C44.2435 15.5703 43.7031 15.5117 43.1172 15.5117C41.8932 15.5117 40.8125 15.6354 39.875 15.8828C38.9505 16.1172 38.0586 16.4622 37.1992 16.918L35.3242 13.1289C36.6523 12.2174 38.0391 11.5208 39.4844 11.0391C40.9427 10.5573 42.4857 10.3164 44.1133 10.3164C45.3763 10.3164 46.5417 10.4596 47.6094 10.7461C48.6901 11.0195 49.6146 11.4753 50.3828 12.1133C51.151 12.7383 51.75 13.5586 52.1797 14.5742C52.6224 15.5898 52.8438 16.8268 52.8438 18.2852V25.6484H55.5586V31H47.1211V29.9062ZM42.668 26.8789C43.5924 26.8789 44.4323 26.7292 45.1875 26.4297C45.9427 26.1302 46.5872 25.7656 47.1211 25.3359V22.7578H42.4336C42.1341 22.7578 41.8411 22.8034 41.5547 22.8945C41.2682 22.9857 41.0078 23.1159 40.7734 23.2852C40.5521 23.4544 40.3698 23.6628 40.2266 23.9102C40.0964 24.1576 40.0312 24.444 40.0312 24.7695C40.0312 25.3685 40.2461 25.8698 40.6758 26.2734C41.1185 26.6771 41.7826 26.8789 42.668 26.8789ZM82.5898 16.957C82.5898 16.6445 82.4857 16.3451 82.2773 16.0586C82.082 15.7721 81.7891 15.5247 81.3984 15.3164C81.0078 15.0951 80.526 14.9193 79.9531 14.7891C79.3932 14.6589 78.7552 14.5938 78.0391 14.5938C77.7656 14.5938 77.4727 14.6198 77.1602 14.6719C76.8477 14.7109 76.5547 14.7891 76.2812 14.9062C76.0208 15.0234 75.7995 15.1862 75.6172 15.3945C75.4479 15.5898 75.3633 15.8438 75.3633 16.1562C75.3633 16.3125 75.3828 16.4622 75.4219 16.6055C75.474 16.7487 75.5651 16.8854 75.6953 17.0156C75.8255 17.1458 76.0013 17.2695 76.2227 17.3867C76.457 17.4909 76.7565 17.5755 77.1211 17.6406L80.793 18.3633C82.1211 18.6237 83.2344 18.9492 84.1328 19.3398C85.0312 19.7305 85.7539 20.1862 86.3008 20.707C86.8477 21.2279 87.2383 21.8073 87.4727 22.4453C87.7201 23.0833 87.8438 23.7734 87.8438 24.5156C87.8438 25.6745 87.5703 26.6901 87.0234 27.5625C86.4896 28.4349 85.7799 29.1641 84.8945 29.75C84.0221 30.3229 83.0326 30.7526 81.9258 31.0391C80.832 31.3385 79.7253 31.4883 78.6055 31.4883C77.8763 31.4883 77.2122 31.4427 76.6133 31.3516C76.0273 31.2604 75.4935 31.1367 75.0117 30.9805C74.543 30.8242 74.1198 30.6419 73.7422 30.4336C73.3776 30.2122 73.0391 29.9714 72.7266 29.7109H69.1914V24.2812H74.7188V24.3984C74.7318 24.776 74.849 25.1081 75.0703 25.3945C75.2917 25.668 75.5781 25.9023 75.9297 26.0977C76.2943 26.293 76.7044 26.4427 77.1602 26.5469C77.6159 26.638 78.0977 26.6836 78.6055 26.6836C79.7773 26.6836 80.6302 26.5339 81.1641 26.2344C81.6979 25.9219 81.9648 25.5247 81.9648 25.043C81.9648 24.6654 81.8346 24.3464 81.5742 24.0859C81.3138 23.8125 80.8516 23.5977 80.1875 23.4414L76.4375 22.6406C74.0807 22.1849 72.3034 21.4297 71.1055 20.375C69.9076 19.3073 69.3086 17.9401 69.3086 16.2734C69.3086 15.2969 69.5365 14.4115 69.9922 13.6172C70.4479 12.8099 71.0664 12.1263 71.8477 11.5664C72.6289 10.9935 73.5404 10.5508 74.582 10.2383C75.6367 9.92578 76.763 9.76953 77.9609 9.76953C78.7812 9.76953 79.5104 9.82161 80.1484 9.92578C80.7865 10.0169 81.3594 10.1406 81.8672 10.2969C82.375 10.4531 82.8177 10.6419 83.1953 10.8633C83.5859 11.0716 83.931 11.293 84.2305 11.5273H87.6289V16.957H82.5898ZM108.84 10.7656H112.883V15.8828H108.801L108.762 24.4375C108.762 24.9323 108.801 25.3359 108.879 25.6484C108.957 25.9479 109.068 26.1888 109.211 26.3711C109.367 26.5534 109.549 26.6771 109.758 26.7422C109.966 26.8073 110.207 26.8398 110.48 26.8398C110.975 26.8398 111.411 26.7943 111.789 26.7031C112.167 26.599 112.544 26.4818 112.922 26.3516L113.762 30.1211C113.098 30.5378 112.355 30.8698 111.535 31.1172C110.728 31.3646 109.764 31.4883 108.645 31.4883C107.85 31.4883 107.089 31.3516 106.359 31.0781C105.643 30.8047 105.012 30.3945 104.465 29.8477C103.918 29.2878 103.482 28.5911 103.156 27.7578C102.831 26.9245 102.674 25.9544 102.688 24.8477L102.746 15.8828H99.8359V10.7656H102.766L102.805 5.92188L108.879 3.03125L108.84 10.7656ZM145.48 25.6484H148.234V6.76172H145.48V1.39062H157.668L166.398 22.7578L174.504 1.39062H186.867V6.76172H184.113V25.6484H186.828V31H175.754V25.6484H177.785V8.61719L168.918 30.6484H163.43L154.406 9.20312V25.6484H156.613V31H145.48V25.6484ZM213.098 29.9062C212.642 30.1927 212.225 30.4401 211.848 30.6484C211.47 30.8438 211.092 31 210.715 31.1172C210.337 31.2474 209.947 31.3385 209.543 31.3906C209.139 31.4557 208.697 31.4883 208.215 31.4883C207.004 31.4883 205.917 31.3255 204.953 31C204.003 30.6615 203.195 30.2057 202.531 29.6328C201.88 29.0469 201.379 28.3633 201.027 27.582C200.676 26.7878 200.5 25.9284 200.5 25.0039C200.5 24.0664 200.676 23.2005 201.027 22.4062C201.392 21.612 201.913 20.9349 202.59 20.375C203.267 19.8021 204.094 19.3594 205.07 19.0469C206.06 18.7214 207.186 18.5586 208.449 18.5586C209.374 18.5586 210.214 18.6107 210.969 18.7148C211.737 18.806 212.447 18.9232 213.098 19.0664V18.4414C213.098 17.9336 213 17.4974 212.805 17.1328C212.609 16.7552 212.336 16.4492 211.984 16.2148C211.633 15.9674 211.21 15.7917 210.715 15.6875C210.22 15.5703 209.68 15.5117 209.094 15.5117C207.87 15.5117 206.789 15.6354 205.852 15.8828C204.927 16.1172 204.035 16.4622 203.176 16.918L201.301 13.1289C202.629 12.2174 204.016 11.5208 205.461 11.0391C206.919 10.5573 208.462 10.3164 210.09 10.3164C211.353 10.3164 212.518 10.4596 213.586 10.7461C214.667 11.0195 215.591 11.4753 216.359 12.1133C217.128 12.7383 217.727 13.5586 218.156 14.5742C218.599 15.5898 218.82 16.8268 218.82 18.2852V25.6484H221.535V31H213.098V29.9062ZM208.645 26.8789C209.569 26.8789 210.409 26.7292 211.164 26.4297C211.919 26.1302 212.564 25.7656 213.098 25.3359V22.7578H208.41C208.111 22.7578 207.818 22.8034 207.531 22.8945C207.245 22.9857 206.984 23.1159 206.75 23.2852C206.529 23.4544 206.346 23.6628 206.203 23.9102C206.073 24.1576 206.008 24.444 206.008 24.7695C206.008 25.3685 206.223 25.8698 206.652 26.2734C207.095 26.6771 207.759 26.8789 208.645 26.8789ZM254.016 18.1289H248.527V16.0391C247.993 16.0391 247.505 16.0781 247.062 16.1562C246.62 16.2214 246.229 16.3385 245.891 16.5078C245.565 16.6771 245.285 16.9115 245.051 17.2109C244.829 17.5104 244.673 17.8815 244.582 18.3242V25.6484H248.703V31H235.5V25.6484H238.527V16.1172H235.539V10.7656H244.543V12.1914C245.116 11.7357 245.76 11.3841 246.477 11.1367C247.193 10.8893 247.974 10.7656 248.82 10.7656C249.68 10.7656 250.565 10.7721 251.477 10.7852C252.388 10.7982 253.234 10.8047 254.016 10.8047V18.1289ZM266.926 0.609375H276.047V18.1289H279.465L280.871 16.1172V10.7656H291.34V16.1172H287.707L283.938 20.4727L287.785 25.1211H291.145V31H285.656L279.094 22.3281H276.047V25.6484H278.117V31H266.926V25.6484H270.051V5.96094H266.926V0.609375ZM309.934 22.1523L309.992 22.7578C310.135 23.3438 310.376 23.8581 310.715 24.3008C311.066 24.7435 311.477 25.1146 311.945 25.4141C312.414 25.7135 312.935 25.9414 313.508 26.0977C314.081 26.2409 314.66 26.3125 315.246 26.3125C315.832 26.3125 316.385 26.2799 316.906 26.2148C317.44 26.1367 317.954 26.0391 318.449 25.9219C318.944 25.7917 319.426 25.6484 319.895 25.4922C320.363 25.3229 320.839 25.1471 321.32 24.9648L323.469 28.9688C322.727 29.4245 322.043 29.8151 321.418 30.1406C320.806 30.4531 320.188 30.7135 319.562 30.9219C318.938 31.1302 318.273 31.2799 317.57 31.3711C316.867 31.4753 316.047 31.5273 315.109 31.5273C313.352 31.5273 311.789 31.2409 310.422 30.668C309.055 30.082 307.902 29.2943 306.965 28.3047C306.04 27.3151 305.331 26.1562 304.836 24.8281C304.354 23.5 304.113 22.0938 304.113 20.6094C304.113 19.125 304.367 17.7318 304.875 16.4297C305.396 15.1276 306.125 13.9948 307.062 13.0312C308 12.0547 309.12 11.2865 310.422 10.7266C311.724 10.1667 313.169 9.88672 314.758 9.88672C316.346 9.88672 317.753 10.1536 318.977 10.6875C320.214 11.2083 321.255 11.9375 322.102 12.875C322.948 13.7995 323.599 14.8932 324.055 16.1562C324.51 17.4062 324.758 18.7539 324.797 20.1992C324.836 20.5247 324.855 20.8503 324.855 21.1758C324.868 21.4883 324.862 21.8138 324.836 22.1523H309.934ZM314.602 14.7695C313.872 14.7695 313.247 14.8607 312.727 15.043C312.219 15.2122 311.789 15.4531 311.438 15.7656C311.086 16.0651 310.806 16.4102 310.598 16.8008C310.389 17.1914 310.227 17.6016 310.109 18.0312H318.566C318.475 17.5885 318.345 17.1719 318.176 16.7812C318.007 16.3906 317.772 16.0456 317.473 15.7461C317.173 15.4466 316.789 15.2122 316.32 15.043C315.865 14.8607 315.292 14.7695 314.602 14.7695ZM345.48 10.7656H349.523V15.8828H345.441L345.402 24.4375C345.402 24.9323 345.441 25.3359 345.52 25.6484C345.598 25.9479 345.708 26.1888 345.852 26.3711C346.008 26.5534 346.19 26.6771 346.398 26.7422C346.607 26.8073 346.848 26.8398 347.121 26.8398C347.616 26.8398 348.052 26.7943 348.43 26.7031C348.807 26.599 349.185 26.4818 349.562 26.3516L350.402 30.1211C349.738 30.5378 348.996 30.8698 348.176 31.1172C347.368 31.3646 346.405 31.4883 345.285 31.4883C344.491 31.4883 343.729 31.3516 343 31.0781C342.284 30.8047 341.652 30.3945 341.105 29.8477C340.559 29.2878 340.122 28.5911 339.797 27.7578C339.471 26.9245 339.315 25.9544 339.328 24.8477L339.387 15.8828H336.477V10.7656H339.406L339.445 5.92188L345.52 3.03125L345.48 10.7656Z" fill="#688E26"/>
</svg>
