<svg width="100" height="76" viewBox="0 0 100 76" fill="none" xmlns="http://www.w3.org/2000/svg">
<path d="M93.8475 54.7075H43.4073C42.2115 54.7075 41.1745 53.8816 40.9083 52.7169L33.6437 20.9509C31.8984 13.319 25.8605 7.40718 18.1935 5.8232L14.5448 5.06939C13.1583 4.78314 12.2669 3.42808 12.5537 2.04295C12.8402 0.657818 14.1968 -0.232735 15.583 0.0535203L33.4301 3.74065C34.4128 3.94368 35.1866 4.70093 35.41 5.6783L41.8968 34.0442C43.9763 43.1373 52.0656 49.5855 61.3935 49.5855H93.8473C95.263 49.5855 96.4108 50.7321 96.4108 52.1465C96.4108 53.5608 95.2632 54.7075 93.8475 54.7075Z" fill="white"/>
<path d="M98.0744 23.8549L43.4823 9.83882C42.616 9.61648 41.6969 9.86104 41.0562 10.4841C40.4155 11.1072 40.146 12.0188 40.3453 12.8897L49.4533 52.7171C49.7196 53.8818 50.7566 54.7077 51.9523 54.7077H93.8476C95.1271 54.7077 96.2106 53.7652 96.3866 52.4992L99.9755 26.6879C100.155 25.3978 99.3368 24.1789 98.0744 23.8549Z" fill="white"/>
<path d="M98.074 23.8549L92.8766 22.5206C82.5323 19.8648 72.4604 27.6775 72.4604 38.3573C72.4604 47.3873 79.7807 54.7076 88.8108 54.7076H93.8472C95.1267 54.7076 96.2102 53.7651 96.3862 52.4991L99.9751 26.6877C100.154 25.3978 99.3364 24.179 98.074 23.8549Z" fill="white"/>
<path d="M55.8101 58.1221C51.0984 58.1221 47.2651 61.9516 47.2651 66.6586C47.2651 71.3657 51.0984 75.1952 55.8101 75.1952C60.5217 75.1952 64.355 71.3657 64.355 66.6586C64.355 61.9516 60.5217 58.1221 55.8101 58.1221Z" fill="white"/>
<path d="M81.4448 58.1221C76.7332 58.1221 72.8999 61.9516 72.8999 66.6586C72.8999 71.3657 76.7332 75.1952 81.4448 75.1952C86.1565 75.1952 89.9898 71.3657 89.9898 66.6586C89.9896 61.9516 86.1565 58.1221 81.4448 58.1221Z" fill="white"/>
<path d="M81.4448 58.1221C76.7332 58.1221 72.8999 61.9516 72.8999 66.6586C72.8999 71.3657 76.7332 75.1952 81.4448 75.1952C86.1565 75.1952 89.9898 71.3657 89.9898 66.6586C89.9896 61.9516 86.1565 58.1221 81.4448 58.1221Z" fill="white"/>
<path d="M61.4902 26.3663C60.0745 26.3663 58.9268 27.5129 58.9268 28.9272V40.1956C58.9268 41.61 60.0745 42.7565 61.4902 42.7565C62.906 42.7565 64.0537 41.61 64.0537 40.1956V28.9272C64.0537 27.5129 62.906 26.3663 61.4902 26.3663Z" fill="#688E26"/>
<path d="M83.4316 32.5125C82.0159 32.5125 80.8682 33.659 80.8682 35.0734V40.1954C80.8682 41.6097 82.0159 42.7563 83.4316 42.7563C84.8474 42.7563 85.9951 41.6097 85.9951 40.1954V35.0734C85.9951 33.659 84.8475 32.5125 83.4316 32.5125Z" fill="#688E26"/>
<path d="M72.4609 29.781C71.0452 29.781 69.8975 30.9276 69.8975 32.3419V40.1956C69.8975 41.6099 71.0452 42.7565 72.4609 42.7565C73.8767 42.7565 75.0244 41.6099 75.0244 40.1956V32.3419C75.0244 30.9276 73.8767 29.781 72.4609 29.781Z" fill="#688E26"/>
<path d="M75.0241 32.3421C75.0241 30.1191 72.4606 31.583 72.4606 33.806L72.4604 42.7565C72.4604 42.7566 72.4605 42.7566 72.4606 42.7566C73.8763 42.7566 75.0241 41.6101 75.0241 40.1957V32.3421Z" fill="#688E26"/>
<path d="M25.4916 18.8475H9.48041C7.73372 18.8475 6.32031 20.2609 6.32031 22.0076C6.32031 23.7543 7.73372 25.1677 9.48041 25.1677H25.4916C27.2382 25.1677 28.6516 23.7543 28.6516 22.0076C28.6516 20.2609 27.2382 18.8475 25.4916 18.8475Z" fill="white"/>
<path d="M25.4916 44.1283H9.48041C7.73372 44.1283 6.32031 45.5417 6.32031 47.2884C6.32031 49.0351 7.73372 50.4485 9.48041 50.4485H25.4916C27.2382 50.4485 28.6516 49.0351 28.6516 47.2884C28.6516 45.5417 27.2382 44.1283 25.4916 44.1283Z" fill="white"/>
<path d="M19.1712 31.4879H3.16009C1.4134 31.4879 0 32.9013 0 34.648C0 36.3947 1.4134 37.8081 3.16009 37.8081H19.1712C20.9179 37.8081 22.3313 36.3947 22.3313 34.648C22.3313 32.9013 20.9179 31.4879 19.1712 31.4879Z" fill="white"/>
</svg>
