<svg width="200" height="151" viewBox="0 0 200 151" fill="none" xmlns="http://www.w3.org/2000/svg">
<path d="M187.695 109.415H86.8146C84.4231 109.415 82.3491 107.763 81.8165 105.434L64.4225 29.3742C62.6772 21.7423 56.6393 15.8305 48.9723 14.2465L29.0896 10.1388C26.3166 9.56627 24.5338 6.85616 25.1073 4.0859C25.6805 1.31564 28.3937 -0.465469 31.166 0.107041L66.8602 7.48131C68.8255 7.88736 70.3732 9.40187 70.8199 11.3566L87.3478 83.6297C89.4272 92.7229 97.5165 99.1711 106.844 99.1711H187.695C190.526 99.1711 192.822 101.464 192.822 104.293C192.822 107.122 190.526 109.415 187.695 109.415Z" fill="#688E26"/>
<path d="M196.148 47.7098L86.9636 19.6776C85.231 19.233 83.3928 19.7221 82.1114 20.9683C80.83 22.2145 80.291 24.0376 80.6895 25.7794L98.9056 105.434C99.4381 107.764 101.512 109.415 103.904 109.415H187.694C190.253 109.415 192.42 107.53 192.772 104.998L199.95 53.3757C200.309 50.7955 198.673 48.3578 196.148 47.7098Z" fill="#688E26"/>
<path d="M196.149 47.7099L169.895 40.9695C157.242 37.7209 144.922 47.2775 144.922 60.3413V89.4151C144.922 100.461 153.876 109.415 164.922 109.415H187.695C190.254 109.415 192.421 107.53 192.773 104.998L199.951 53.3755C200.31 50.7956 198.674 48.3579 196.149 47.7099Z" fill="#688E26"/>
<path d="M111.619 116.244C102.196 116.244 94.5293 123.903 94.5293 133.317C94.5293 142.731 102.196 150.39 111.619 150.39C121.042 150.39 128.709 142.731 128.709 133.317C128.709 123.903 121.042 116.244 111.619 116.244Z" fill="#688E26"/>
<path d="M162.889 116.244C153.465 116.244 145.799 123.903 145.799 133.317C145.799 142.731 153.465 150.39 162.889 150.39C172.312 150.39 179.979 142.731 179.979 133.317C179.978 123.903 172.312 116.244 162.889 116.244Z" fill="#688E26"/>
<path d="M162.889 116.244C153.465 116.244 145.799 123.903 145.799 133.317C145.799 142.731 153.465 150.39 162.889 150.39C172.312 150.39 179.979 142.731 179.979 133.317C179.978 123.903 172.312 116.244 162.889 116.244Z" fill="#688E26"/>
<path d="M122.98 52.7327C120.149 52.7327 117.854 55.0258 117.854 57.8545V80.3912C117.854 83.2199 120.149 85.513 122.98 85.513C125.812 85.513 128.107 83.2199 128.107 80.3912V57.8545C128.107 55.0258 125.812 52.7327 122.98 52.7327Z" fill="white"/>
<path d="M166.863 65.0249C164.032 65.0249 161.736 67.318 161.736 70.1467V80.3907C161.736 83.2194 164.032 85.5126 166.863 85.5126C169.695 85.5126 171.99 83.2194 171.99 80.3907V70.1467C171.99 67.318 169.695 65.0249 166.863 65.0249Z" fill="white"/>
<path d="M144.922 59.562C142.09 59.562 139.795 61.8551 139.795 64.6838V80.3911C139.795 83.2198 142.09 85.513 144.922 85.513C147.753 85.513 150.049 83.2198 150.049 80.3911V64.6838C150.049 61.8551 147.753 59.562 144.922 59.562Z" fill="white"/>
<path d="M150.049 64.6842C150.049 60.2383 144.922 63.1661 144.922 67.612L144.922 85.513C144.922 85.5131 144.922 85.5133 144.922 85.5133C147.754 85.5133 150.049 83.2202 150.049 80.3915V64.6842Z" fill="white"/>
<path d="M50.9831 37.6951H18.9608C15.4674 37.6951 12.6406 40.5219 12.6406 44.0153C12.6406 47.5086 15.4674 50.3354 18.9608 50.3354H50.9831C54.4765 50.3354 57.3033 47.5086 57.3033 44.0153C57.3033 40.5219 54.4765 37.6951 50.9831 37.6951Z" fill="#688E26"/>
<path d="M50.9831 88.2566H18.9608C15.4674 88.2566 12.6406 91.0834 12.6406 94.5768C12.6406 98.0702 15.4674 100.897 18.9608 100.897H50.9831C54.4765 100.897 57.3033 98.0702 57.3033 94.5768C57.3033 91.0834 54.4765 88.2566 50.9831 88.2566Z" fill="#688E26"/>
<path d="M38.3425 62.9758H6.32019C2.82681 62.9758 0 65.8026 0 69.296C0 72.7894 2.82681 75.6162 6.32019 75.6162H38.3425C41.8359 75.6162 44.6627 72.7894 44.6627 69.296C44.6627 65.8026 41.8359 62.9758 38.3425 62.9758Z" fill="#688E26"/>
</svg>
