<svg width="70" height="52" viewBox="0 0 70 52" fill="none" xmlns="http://www.w3.org/2000/svg">
<path d="M65.6137 37.6114H30.3483C29.5123 37.6114 28.7872 37.0436 28.6011 36.2429L24.1426 17.0718C22.5442 10.199 17.084 4.89 10.169 3.48521C9.19962 3.2884 8.5764 2.35681 8.77689 1.40453C8.97726 0.45225 9.92573 -0.160005 10.8949 0.0367952L23.3727 2.5717C24.0597 2.71128 24.6008 3.23189 24.7569 3.90383L28.1794 18.6204C30.2861 27.679 38.3592 34.09 47.6596 34.09H65.6136C66.6034 34.09 67.4058 34.8783 67.4058 35.8507C67.4058 36.823 66.6035 37.6114 65.6137 37.6114Z" fill="#688E26"/>
<path d="M68.5688 16.4002L30.4006 6.76418C29.7949 6.61133 29.1523 6.77946 28.7044 7.20784C28.2564 7.63621 28.068 8.26292 28.2073 8.86166L34.5752 36.243C34.7614 37.0437 35.4864 37.6115 36.3224 37.6115H65.6136C66.5082 37.6115 67.2657 36.9636 67.3888 36.0932L69.8979 18.3479C70.0233 17.4609 69.4514 16.623 68.5688 16.4002Z" fill="#688E26"/>
<path d="M68.569 16.4003L64.6863 15.42C57.5688 13.6232 50.6613 19.0036 50.6613 26.3444C50.6613 32.567 55.7057 37.6115 61.9283 37.6115H65.6138C66.5084 37.6115 67.266 36.9635 67.389 36.0931L69.8982 18.3478C70.0235 17.461 69.4517 16.623 68.569 16.4003Z" fill="#688E26"/>
<path d="M39.0195 39.9589C35.7253 39.9589 33.0453 42.5916 33.0453 45.8277C33.0453 49.0638 35.7253 51.6966 39.0195 51.6966C42.3137 51.6966 44.9937 49.0638 44.9937 45.8277C44.9937 42.5916 42.3137 39.9589 39.0195 39.9589Z" fill="#688E26"/>
<path d="M56.9421 39.9589C53.6479 39.9589 50.9679 42.5916 50.9679 45.8277C50.9679 49.0638 53.6479 51.6966 56.9421 51.6966C60.2363 51.6966 62.9163 49.0638 62.9163 45.8277C62.9162 42.5916 60.2363 39.9589 56.9421 39.9589Z" fill="#688E26"/>
<path d="M56.9421 39.9589C53.6479 39.9589 50.9679 42.5916 50.9679 45.8277C50.9679 49.0638 53.6479 51.6966 56.9421 51.6966C60.2363 51.6966 62.9163 49.0638 62.9163 45.8277C62.9162 42.5916 60.2363 39.9589 56.9421 39.9589Z" fill="#688E26"/>
<path d="M42.991 18.1268C42.0012 18.1268 41.1987 18.9151 41.1987 19.8875V27.6345C41.1987 28.6068 42.0012 29.3951 42.991 29.3951C43.9808 29.3951 44.7833 28.6068 44.7833 27.6345V19.8875C44.7833 18.9151 43.9808 18.1268 42.991 18.1268Z" fill="white"/>
<path d="M58.3315 22.3523C57.3417 22.3523 56.5392 23.1406 56.5392 24.1129V27.6343C56.5392 28.6067 57.3417 29.3949 58.3315 29.3949C59.3213 29.3949 60.1238 28.6067 60.1238 27.6343V24.1129C60.1238 23.1406 59.3214 22.3523 58.3315 22.3523Z" fill="white"/>
<path d="M50.6609 20.4745C49.6711 20.4745 48.8687 21.2627 48.8687 22.2351V27.6345C48.8687 28.6069 49.6711 29.3951 50.6609 29.3951C51.6507 29.3951 52.4532 28.6069 52.4532 27.6345V22.2351C52.4532 21.2627 51.6507 20.4745 50.6609 20.4745Z" fill="white"/>
<path d="M52.4536 22.2352C52.4536 20.694 50.6614 21.7239 50.6613 23.2652L50.6613 29.3951C50.6613 29.3952 50.6613 29.3952 50.6614 29.3952C51.6512 29.3952 52.4536 28.607 52.4536 27.6346V22.2352Z" fill="white"/>
<path d="M17.8224 12.9576H6.62815C5.40695 12.9576 4.41876 13.9294 4.41876 15.1302C4.41876 16.3311 5.40695 17.3028 6.62815 17.3028H17.8224C19.0436 17.3028 20.0318 16.3311 20.0318 15.1302C20.0318 13.9294 19.0436 12.9576 17.8224 12.9576Z" fill="#688E26"/>
<path d="M17.8224 30.3381H6.62815C5.40695 30.3381 4.41876 31.3099 4.41876 32.5107C4.41876 33.7115 5.40695 34.6833 6.62815 34.6833H17.8224C19.0436 34.6833 20.0318 33.7115 20.0318 32.5107C20.0318 31.3099 19.0436 30.3381 17.8224 30.3381Z" fill="#688E26"/>
<path d="M13.4036 21.6479H2.20939C0.988185 21.6479 0 22.6197 0 23.8205C0 25.0214 0.988185 25.9931 2.20939 25.9931H13.4036C14.6248 25.9931 15.613 25.0214 15.613 23.8205C15.613 22.6197 14.6248 21.6479 13.4036 21.6479Z" fill="#688E26"/>
</svg>
