<svg width="128" height="127" viewBox="0 0 128 127" fill="none" xmlns="http://www.w3.org/2000/svg">
<rect width="128" height="126.431" rx="20" fill="#688E26"/>
<path d="M102.586 78.1728H58.1984C57.1462 78.1728 56.2336 77.4548 55.9993 76.4425L49.9832 50.458C48.2177 42.8327 42.1664 36.938 34.4975 35.373L32.7994 35.0265C31.5793 34.7777 30.7949 33.5999 31.0472 32.3959C31.2994 31.1919 32.4932 30.4178 33.713 30.6666L49.4185 33.8716C50.2832 34.048 50.9642 34.7062 51.1608 35.5558L56.4108 58.2318C58.5102 67.2997 66.5876 73.7206 75.8954 73.7206H102.586C103.831 73.7206 104.841 74.7172 104.841 75.9466C104.841 77.176 103.832 78.1728 102.586 78.1728Z" fill="white"/>
<path d="M106.305 51.3551L58.2643 39.1721C57.502 38.9789 56.6932 39.1915 56.1294 39.7331C55.5656 40.2747 55.3284 41.067 55.5038 41.824L63.5188 76.4426C63.7532 77.4549 64.6657 78.1729 65.718 78.1729H102.586C103.712 78.1729 104.665 77.3536 104.82 76.2532L107.978 53.8176C108.136 52.6962 107.416 51.6368 106.305 51.3551Z" fill="white"/>
<path d="M106.305 51.3552L101.501 50.1369C92.5044 47.8554 83.7654 54.6548 83.7654 63.9364V63.9364C83.7654 71.799 90.1393 78.1728 98.0018 78.1728H102.586C103.712 78.1728 104.665 77.3535 104.82 76.2531L107.978 53.8175C108.136 52.6963 107.416 51.6368 106.305 51.3552Z" fill="white"/>
<path d="M69.1129 81.1407C64.9666 81.1407 61.5933 84.4693 61.5933 88.5608C61.5933 92.6522 64.9666 95.9809 69.1129 95.9809C73.2591 95.9809 76.6324 92.6522 76.6324 88.5608C76.6324 84.4693 73.2591 81.1407 69.1129 81.1407Z" fill="white"/>
<path d="M91.6713 81.1407C87.5251 81.1407 84.1518 84.4693 84.1518 88.5608C84.1518 92.6522 87.5251 95.9809 91.6713 95.9809C95.8176 95.9809 99.1909 92.6522 99.1909 88.5608C99.1907 84.4693 95.8176 81.1407 91.6713 81.1407Z" fill="white"/>
<path d="M91.6713 81.1407C87.5251 81.1407 84.1518 84.4693 84.1518 88.5608C84.1518 92.6522 87.5251 95.9809 91.6713 95.9809C95.8176 95.9809 99.1909 92.6522 99.1909 88.5608C99.1907 84.4693 95.8176 81.1407 91.6713 81.1407Z" fill="white"/>
<path d="M74.1115 53.5381C72.8656 53.5381 71.8556 54.5347 71.8556 55.7641V65.5587C71.8556 66.7881 72.8656 67.7847 74.1115 67.7847C75.3573 67.7847 76.3673 66.7881 76.3673 65.5587V55.7641C76.3673 54.5347 75.3573 53.5381 74.1115 53.5381Z" fill="#688E26"/>
<path d="M93.4198 58.8804C92.174 58.8804 91.1639 59.877 91.1639 61.1064V65.5585C91.1639 66.7879 92.174 67.7845 93.4198 67.7845C94.6656 67.7845 95.6757 66.7879 95.6757 65.5585V61.1064C95.6757 59.877 94.6658 58.8804 93.4198 58.8804Z" fill="#688E26"/>
<path d="M83.7656 56.5062C82.5198 56.5062 81.5098 57.5028 81.5098 58.7322V65.5587C81.5098 66.7881 82.5198 67.7847 83.7656 67.7847C85.0115 67.7847 86.0215 66.7881 86.0215 65.5587V58.7322C86.0215 57.5028 85.0115 56.5062 83.7656 56.5062Z" fill="#688E26"/>
<path d="M86.0215 58.7324C86.0215 56.7881 83.7656 58.0823 83.7655 60.0266L83.7654 67.7847C83.7654 67.7848 83.7655 67.7849 83.7656 67.7849V67.7849C85.0114 67.7849 86.0215 66.7883 86.0215 65.5589V58.7324V58.7324Z" fill="#688E26"/>
<path d="M42.4325 47.0027H28.3427C26.8056 47.0027 25.5618 48.2312 25.5618 49.7495C25.5618 51.2677 26.8056 52.4963 28.3427 52.4963H42.4325C43.9695 52.4963 45.2133 51.2677 45.2133 49.7495C45.2133 48.2312 43.9695 47.0027 42.4325 47.0027Z" fill="white"/>
<path d="M42.4325 68.9771H28.3427C26.8056 68.9771 25.5618 70.2057 25.5618 71.7239C25.5618 73.2422 26.8056 74.4707 28.3427 74.4707H42.4325C43.9695 74.4707 45.2133 73.2422 45.2133 71.7239C45.2133 70.2057 43.9695 68.9771 42.4325 68.9771Z" fill="white"/>
<path d="M36.8707 57.9899H22.7809C21.2438 57.9899 20 59.2184 20 60.7367C20 62.2549 21.2438 63.4835 22.7809 63.4835H36.8707C38.4078 63.4835 39.6516 62.2549 39.6516 60.7367C39.6516 59.2184 38.4078 57.9899 36.8707 57.9899Z" fill="white"/>
</svg>
